<svg width="264" height="220" viewBox="0 0 264 220" fill="none" xmlns="http://www.w3.org/2000/svg">
<rect width="264" height="220" fill="white"/>
<g clip-path="url(#clip0_183_2)">
<path d="M192.293 58.3823L142.073 108.58L162.469 128.924L150.861 140.474L130.477 120.146C126.545 123.411 98.8901 150.975 90.6302 159.338C84.5028 165.543 63.3988 185.342 63.1226 192.558C62.9242 197.766 67.8091 199.085 78.5025 200.213L78.5 204.882C73.6488 204.848 68.1771 204.835 62.4029 204.421C60.2007 204.263 53.2898 203.772 47.4132 203.759C42.1341 203.747 34.6765 204.412 31.3145 204.532C25.6822 204.733 21.4481 205.039 15.0002 204.892L15.551 200.844C29.0016 198.867 38.8139 191.885 56.5083 176.683C58.477 174.992 82.5128 153.084 88.7557 146.942C94.9987 140.8 120.011 117.338 123.349 113.137L103.008 92.7517C103.008 92.7517 113.68 82.1451 114.61 81.2141L134.99 101.518C149.723 86.385 196.95 42.8484 200.547 30.8326C202.843 23.1637 197.983 21.1847 188.865 19.9235L189.631 15.3575C193.045 15.5218 196.154 15.816 201.502 15.9754C205.187 16.0841 215.004 16.6612 217.967 16.7315C219.62 16.7708 248.009 16.3465 248.009 16.3465V21.0752C227.667 20.5251 219.466 31.3949 192.293 58.3823Z" fill="#231F20"/>
<path d="M93.0076 82.7783L104.589 71.2022C104.589 71.2022 94.8976 61.498 90.7586 57.3987C82.4158 49.1356 64.8173 31.5336 64.8689 25.6279C64.9172 20.108 71.3913 20.6074 78.5801 20.3654L78.0424 15.6433C72.3716 15.7929 63.6223 16.4468 50.8028 16.567C41.5446 16.6536 26.3073 16.2572 15.5786 15L15 19.6175C34.5132 21.679 34.4517 24.3797 93.0076 82.7783Z" fill="#231F20"/>
<path d="M172.484 138.911L203.413 169.509C229.901 195.924 232.11 198.454 248.73 200.186L249 204.892C243.934 204.407 237.827 204.078 232.381 203.842C227.835 203.644 219.067 203.646 215.513 203.696C210.888 203.759 203.475 203.926 182.686 204.913L182.796 200.213C190.071 199.521 196.577 196.667 196.552 192.558C196.53 188.914 192.774 182.978 186.894 176.683C177.951 167.108 176.689 166.198 169.119 158.744L160.869 150.456L172.484 138.911Z" fill="#231F20"/>
<path d="M156.648 29.9204C154.725 27.7968 144.132 16.7095 144.132 16.7095L141.915 19.1511C151.618 29.2608 143.582 34.8068 125.198 53.3897C131.105 52.8486 136.57 52.7668 141.41 52.9213C147.808 46.9837 154.24 41.3207 156.667 40.7551C161.225 39.6933 164.099 42.8362 168.134 45.9791L171 43.7255C167.73 40.7902 159.181 32.7184 156.648 29.9204Z" fill="#231F20"/>
<path d="M124.928 155.766C119.651 153.067 113.469 148.891 108.114 144.803C106.216 146.689 104.365 148.534 102.621 150.277C106.353 154.078 108.204 155.987 110.26 158.421C112.795 161.423 113.726 162.61 116.373 166.156C125.465 166.967 138.427 167.301 153.028 164.454L153.139 160.715C142.915 161.538 136.217 161.538 124.928 155.766Z" fill="#231F20"/>
<path d="M84.0138 114.535C84.5654 107.396 91.2854 101.562 102.057 90.7451C110.812 81.9539 121.853 71.3146 129.693 63.9196C124.993 62.7147 120.753 62.5847 115.856 62.8578L92.8238 85.826C75.5604 103.044 69.7379 111.152 57.3783 100.302L55.3506 103.209C55.3506 103.209 80.8247 128.36 92.6976 140.227C94.1278 138.859 95.6932 137.367 97.3341 135.799C88.9216 128.264 83.4483 121.869 84.0138 114.535Z" fill="#231F20"/>
<path d="M155.209 63.287C152.673 60.2847 151.743 59.0979 149.097 55.552C140.004 54.7403 127.041 54.4068 112.44 57.2546L112.33 60.9926C114.331 60.8316 116.196 60.7041 117.988 60.6436C118.306 60.6321 118.618 60.6272 118.931 60.6199C119.138 60.6158 119.346 60.61 119.551 60.6076C123.16 60.5635 126.53 60.8479 130.171 61.7806C130.156 61.7961 130.139 61.8116 130.123 61.8263C133.272 62.6462 136.628 63.941 140.541 65.9428C145.757 68.6092 151.857 72.7199 157.168 76.7644L162.684 71.2633C159.062 67.576 157.234 65.6853 155.209 63.287Z" fill="#231F20"/>
<path d="M172.469 81.1777L167.917 85.716C176.451 93.3342 182.025 99.7769 181.455 107.173C180.903 114.312 174.183 120.146 163.411 130.963C154.674 139.735 143.661 150.35 135.823 157.743C140.518 158.966 144.747 159.114 149.612 158.852L172.645 135.881C189.908 118.663 195.731 110.555 208.091 121.405L210.118 118.499C210.118 118.499 184.204 92.9132 172.469 81.1777" fill="#231F20"/>
<path d="M124.064 168.783C117.663 174.723 111.229 180.388 108.801 180.954C104.244 182.015 101.37 178.872 97.3348 175.73L94.4695 177.983C97.7389 180.919 106.288 188.99 108.821 191.789C110.743 193.912 121.336 205 121.336 205L123.553 202.558C113.861 192.462 121.866 186.917 140.201 168.389C134.31 168.9 128.868 168.956 124.064 168.783Z" fill="#231F20"/>
<path d="M119.551 60.6078C123.136 60.5726 126.49 60.88 130.124 61.8265C130.139 61.8118 130.156 61.7963 130.171 61.7808C126.53 60.8481 123.16 60.5636 119.551 60.6078Z" fill="#231F20"/>
</g>
<defs>
<clipPath id="clip0_183_2">
<rect width="234" height="190" fill="white" transform="translate(15 15)"/>
</clipPath>
</defs>
</svg>
