<?xml version="1.0" encoding="UTF-8" standalone="no"?>
<!-- Created with Inkscape (http://www.inkscape.org/) -->

<svg
   version="1.1"
   id="svg824"
   xml:space="preserve"
   width="380.67093"
   height="309.92426"
   viewBox="0 0 380.67093 309.92426"
   sodipodi:docname="XLL Serif semi final.ai.svg"
   inkscape:version="1.1 (c4e8f9e, 2021-05-24)"
   xmlns:inkscape="http://www.inkscape.org/namespaces/inkscape"
   xmlns:sodipodi="http://sodipodi.sourceforge.net/DTD/sodipodi-0.dtd"
   xmlns="http://www.w3.org/2000/svg"
   xmlns:svg="http://www.w3.org/2000/svg"><defs
     id="defs828"><clipPath
       clipPathUnits="userSpaceOnUse"
       id="clipPath846"><path
         d="M 0,792 H 612 V 0 H 0 Z"
         id="path844" /></clipPath></defs><sodipodi:namedview
     id="namedview826"
     pagecolor="#ffffff"
     bordercolor="#666666"
     borderopacity="1.0"
     inkscape:pageshadow="2"
     inkscape:pageopacity="0.0"
     inkscape:pagecheckerboard="0"
     showgrid="false"
     inkscape:snap-page="false"
     inkscape:zoom="0.59276299"
     inkscape:cx="194.00671"
     inkscape:cy="176.29306"
     inkscape:window-width="1365"
     inkscape:window-height="847"
     inkscape:window-x="0"
     inkscape:window-y="25"
     inkscape:window-maximized="0"
     inkscape:current-layer="g840" /><g
     id="g830"
     inkscape:groupmode="layer"
     inkscape:label="XLL Serif semi final"
     transform="matrix(1.3333333,0,0,-1.3333333,-193.6644,730.96158)"><g
       id="g840"><g
         id="g842"
         clip-path="url(#clipPath846)"><g
           id="g848"
           transform="translate(361.5635,495.1479)"><path
             d="m 0,0 -61.274,-61.411 24.886,-24.888 -14.164,-14.131 -24.87,24.869 c -4.797,-3.994 -38.539,-37.716 -48.617,-47.947 -7.476,-7.591 -33.225,-31.813 -33.562,-40.64 -0.242,-6.372 5.718,-7.986 18.765,-9.365 l -0.003,-5.713 c -5.919,0.042 -12.595,0.058 -19.64,0.564 -2.687,0.194 -11.119,0.794 -18.289,0.81 -6.441,0.015 -15.54,-0.799 -19.642,-0.945 -6.872,-0.246 -12.038,-0.62 -19.905,-0.441 l 0.672,4.952 c 16.411,2.419 28.383,10.961 49.972,29.559 2.402,2.068 31.728,28.87 39.345,36.385 7.617,7.514 38.135,36.217 42.207,41.356 l -24.818,24.939 c 0,0 13.021,12.976 14.156,14.115 l 24.866,-24.839 C -51.94,-34.258 5.682,19.004 10.07,33.704 12.872,43.086 6.942,45.507 -4.183,47.05 l 0.935,5.586 c 4.165,-0.201 7.959,-0.561 14.484,-0.756 4.496,-0.133 16.473,-0.839 20.088,-0.925 2.017,-0.048 36.655,0.471 36.655,0.471 V 45.641 C 43.16,46.314 33.153,33.016 0,0"
             style="fill:#231f20;fill-opacity:1;fill-rule:nonzero;stroke:none"
             id="path850" /></g><g
           id="g852"
           transform="translate(240.4253,465.3022)"><path
             d="m 0,0 14.131,14.162 c 0,0 -11.825,11.872 -16.875,16.887 -10.179,10.109 -31.651,31.643 -31.588,38.868 0.059,6.753 7.958,6.142 16.729,6.438 l -0.656,5.777 c -6.919,-0.183 -17.594,-0.983 -33.235,-1.13 -11.296,-0.106 -29.887,0.379 -42.977,1.917 L -95.177,77.27 C -71.369,74.748 -71.444,71.444 0,0"
             style="fill:#231f20;fill-opacity:1;fill-rule:nonzero;stroke:none"
             id="path854" /></g><g
           id="g856"
           transform="translate(337.3945,396.6309)"><path
             d="M 0,0 37.736,-37.434 C 70.054,-69.75 72.75,-72.844 93.028,-74.963 l 0.329,-5.758 c -6.181,0.594 -13.632,0.996 -20.277,1.285 -5.547,0.242 -16.244,0.24 -20.58,0.179 -5.643,-0.078 -14.688,-0.282 -40.053,-1.49 l 0.135,5.751 c 8.876,0.846 16.814,4.337 16.783,9.365 -0.027,4.457 -4.609,11.719 -11.783,19.421 C 6.67,-34.496 5.13,-33.383 -4.106,-24.264 l -10.066,10.139 z"
             style="fill:#231f20;fill-opacity:1;fill-rule:nonzero;stroke:none"
             id="path858" /></g><g
           id="g860"
           transform="translate(318.0732,529.9678)"><path
             d="m 0,0 c -2.346,2.598 -15.271,16.162 -15.271,16.162 l -2.705,-2.987 c 11.839,-12.368 2.034,-19.153 -20.397,-41.887 7.208,0.662 13.876,0.762 19.781,0.573 7.806,7.264 15.654,14.192 18.615,14.884 5.561,1.299 9.068,-2.546 13.991,-6.391 l 3.496,2.757 C 13.521,-13.298 3.09,-3.423 0,0"
             style="fill:#231f20;fill-opacity:1;fill-rule:nonzero;stroke:none"
             id="path862" /></g><g
           id="g864"
           transform="translate(279.3711,376.0107)"><path
             d="m 0,0 c -6.438,3.301 -13.981,8.41 -20.514,13.412 -2.316,-2.308 -4.575,-4.565 -6.703,-6.697 4.554,-4.65 6.812,-6.986 9.321,-9.964 3.093,-3.672 4.229,-5.124 7.458,-9.462 11.094,-0.993 26.908,-1.401 44.723,2.082 l 0.135,4.574 C 21.946,-7.062 13.774,-7.062 0,0"
             style="fill:#231f20;fill-opacity:1;fill-rule:nonzero;stroke:none"
             id="path866" /></g><g
           id="g868"
           transform="translate(229.4521,426.4517)"><path
             d="M 0,0 C 0.673,8.734 8.872,15.871 22.014,29.104 32.697,39.859 46.167,52.875 55.733,61.922 49.999,63.396 44.826,63.555 38.85,63.221 L 10.749,35.122 C -10.314,14.058 -17.418,4.138 -32.498,17.412 l -2.474,-3.556 c 0,0 31.081,-30.77 45.567,-45.287 1.745,1.673 3.655,3.499 5.657,5.417 C 5.988,-16.796 -0.69,-8.972 0,0"
             style="fill:#231f20;fill-opacity:1;fill-rule:nonzero;stroke:none"
             id="path870" /></g><g
           id="g872"
           transform="translate(316.3174,489.1475)"><path
             d="m 0,0 c -3.094,3.673 -4.229,5.125 -7.458,9.463 -11.094,0.993 -26.91,1.401 -44.724,-2.083 l -0.135,-4.573 c 2.442,0.197 4.717,0.353 6.904,0.427 0.388,0.014 0.768,0.02 1.15,0.029 0.253,0.005 0.506,0.012 0.756,0.015 4.404,0.054 8.515,-0.294 12.958,-1.435 -0.018,-0.019 -0.039,-0.038 -0.058,-0.056 3.841,-1.003 7.936,-2.587 12.711,-5.036 6.363,-3.262 13.806,-8.291 20.286,-13.239 l 6.73,6.73 C 4.701,-5.247 2.471,-2.934 0,0"
             style="fill:#231f20;fill-opacity:1;fill-rule:nonzero;stroke:none"
             id="path874" /></g><g
           id="g876"
           transform="translate(337.376,467.2603)"><path
             d="m 0,0 -5.554,-5.552 c 10.412,-9.32 17.214,-17.202 16.518,-26.25 -0.674,-8.734 -8.872,-15.871 -22.015,-29.104 -10.66,-10.732 -24.098,-23.718 -33.66,-32.763 5.728,-1.496 10.887,-1.677 16.823,-1.357 l 28.103,28.103 c 21.063,21.064 28.167,30.983 43.247,17.71 l 2.474,3.555 c 0,0 -31.618,31.301 -45.936,45.658"
             style="fill:#231f20;fill-opacity:1;fill-rule:nonzero;stroke:none"
             id="path878" /></g><g
           id="g880"
           transform="translate(278.3169,360.085)"><path
             d="m 0,0 c -7.81,-7.266 -15.66,-14.197 -18.622,-14.89 -5.56,-1.298 -9.067,2.547 -13.99,6.391 l -3.496,-2.756 c 3.989,-3.592 14.42,-13.466 17.51,-16.89 2.345,-2.597 15.27,-16.162 15.27,-16.162 l 2.705,2.988 C -12.448,-28.968 -2.682,-22.184 19.689,0.482 12.501,-0.143 5.861,-0.211 0,0"
             style="fill:#231f20;fill-opacity:1;fill-rule:nonzero;stroke:none"
             id="path882" /></g><g
           id="g884"
           transform="translate(272.8105,492.4253)"><path
             d="m 0,0 c 4.374,0.043 8.466,-0.333 12.9,-1.491 0.019,0.018 0.039,0.037 0.058,0.056 C 8.515,-0.294 4.404,0.054 0,0"
             style="fill:#231f20;fill-opacity:1;fill-rule:nonzero;stroke:none"
             id="path886" /></g></g></g></g></svg>
